<svg xmlns="http://www.w3.org/2000/svg" viewBox="0 0 64 64" role="img" aria-label="Quiz icon">
  <defs>
    <linearGradient id="quizGradient" x1="0%" y1="0%" x2="100%" y2="100%">
      <stop offset="0%" stop-color="#2563eb" />
      <stop offset="100%" stop-color="#7c3aed" />
    </linearGradient>
  </defs>
  <rect width="64" height="64" rx="14" fill="url(#quizGradient)" />
  <path
    d="M32 17c-6.1 0-11 3.4-11 9h6c0-2.4 2-4 5-4s5 1.4 5 3.9c0 2.3-1.3 3.5-3.8 4.8-2.8 1.4-4.7 3.3-4.7 6.7v2.6h6v-2.2c0-1.6.9-2.7 3-3.8 3.3-1.8 5.5-4.3 5.5-8.4C43 20.6 38.5 17 32 17z"
    fill="#fff"
  />
  <circle cx="32" cy="47" r="3" fill="#fff" />
</svg>
